<svg width="405" height="70" viewBox="0 0 405 70" fill="none" xmlns="http://www.w3.org/2000/svg">
<path d="M316.661 15.9679C321.106 15.9636 326.143 17.7846 329.155 21.2931H329.164V16.9689H335.966L335.983 49.3068C335.992 61.9304 328.409 69.0902 316.372 69.0988C308.457 69.103 301.721 64.8564 298.51 57.2912H306.097C308.583 60.9335 312.052 62.6857 316.433 62.6857C324.671 62.6814 329.182 58.0199 329.178 49.4445H329.048C326.174 53.5661 321.331 55.3273 316.558 55.3273C306.157 55.3314 297.193 46.359 297.185 35.5568C297.18 32.6523 297.897 29.7517 299.14 27.1838C302.471 20.0286 308.945 15.9681 316.661 15.9679ZM165.851 15.2082C168.612 15.2082 171.172 15.7004 173.532 16.6887C175.893 17.677 178.03 19.136 179.941 21.0695C181.689 22.8618 183.061 24.8627 184.051 27.0793L184.248 27.5304C185.249 29.9256 185.755 32.3984 185.755 34.9533V35.0441C185.755 37.6421 185.293 40.1756 184.36 42.6398C183.433 45.1039 182.125 47.2571 180.446 49.0998C178.513 51.2187 176.342 52.8249 173.938 53.9211C171.535 55.0173 168.97 55.5656 166.256 55.5656C163.472 55.5656 160.904 55.0688 158.557 54.0676C156.205 53.0706 154.099 51.59 152.234 49.6349C150.461 47.7705 149.071 45.6 148.069 43.1271C147.068 40.6543 146.563 38.1297 146.563 35.549V35.4543C146.563 32.7614 147.012 30.2451 147.923 27.9103C148.829 25.5712 150.167 23.469 151.94 21.6047C153.848 19.5547 155.997 17.9751 158.393 16.8703C160.788 15.7655 163.274 15.2082 165.851 15.2082ZM125.495 15.2951C129.709 15.2952 133.385 16.4213 136.521 18.6769L136.832 18.8947C140.034 21.2986 142.361 24.6734 143.815 29.0236H143.78C143.789 29.0581 143.807 29.0844 143.815 29.1232H136.323C135.124 26.8015 133.578 25.0622 131.692 23.9142C129.802 22.7663 127.545 22.1916 124.921 22.1916C121.537 22.1916 118.663 23.4737 116.307 26.0285C113.959 28.5747 112.785 31.7125 112.776 35.4455C112.789 39.2217 113.985 42.3724 116.371 44.8928C118.766 47.426 121.748 48.6866 125.317 48.6867C127.713 48.6867 129.875 48.0567 131.809 46.801C133.742 45.5451 135.244 43.7661 136.327 41.4572H143.819C143.811 41.4917 143.798 41.5227 143.785 41.5529H143.819C142.231 46.1316 139.875 49.601 136.746 51.966C133.617 54.331 129.806 55.5138 125.317 55.5138C122.482 55.5138 119.914 55.0262 117.614 54.051C115.31 53.0756 113.225 51.6085 111.36 49.6535C109.587 47.7891 108.198 45.6176 107.196 43.1447C106.195 40.6718 105.689 38.143 105.689 35.5666V35.4719C105.689 32.8264 106.138 30.3446 107.049 28.0314C107.955 25.7182 109.294 23.6035 111.067 21.6916C113.022 19.5984 115.219 18.0053 117.657 16.9221C120.096 15.8388 122.711 15.2951 125.495 15.2951ZM101.632 4.2492L101.662 54.4328V54.5324H94.7568V49.8713C93.0089 51.6925 91.0579 53.069 88.9043 54.0012C86.7508 54.9333 84.4549 55.4045 82.0166 55.4045C76.3069 55.4087 71.5643 53.5049 67.7881 49.6984C64.0118 45.8876 62.1172 41.1191 62.1172 35.3879V35.2971C62.1172 32.6299 62.5875 30.0966 63.5283 27.7013C64.4691 25.3062 65.8157 23.2003 67.5635 21.3791C69.4754 19.3766 71.5643 17.8958 73.8301 16.9377C76.0958 15.9796 78.681 15.5002 81.5811 15.5002C84.1575 15.5002 86.5441 15.9579 88.7451 16.8771C90.9462 17.7964 92.9658 19.1865 94.8086 21.051L94.7998 4.25799L94.7959 4.25408V4.15447H101.632V4.2492ZM399.062 22.3361C402.607 25.8438 404.851 30.6636 404.988 36.0109L405 36.5344C405 37.2895 404.957 38.0362 404.875 38.7697C404.266 44.2421 401.452 49.0458 397.335 52.2697L398.815 55.1916H398.807L398.815 55.2092L377.901 55.1877L377.918 55.1701H377.901L391.807 41.3342L393.61 44.9025C395.919 43.3446 397.826 41.2387 399.151 38.7746C400.455 36.3493 401.193 33.5742 401.193 30.631C401.189 27.6273 400.417 24.8084 399.062 22.3527C399.066 22.357 399.074 22.366 399.078 22.3703C399.074 22.3575 399.07 22.3488 399.062 22.3361ZM28.4111 4.19061C34.8112 4.18639 40.6635 6.36129 43.1191 12.6232C43.801 14.3926 44.1416 16.3004 44.1416 18.1388C44.1416 22.0312 42.8863 24.6721 40.208 27.174L39.6572 27.6769C44.4261 30.3959 47.1543 34.2757 47.1543 39.925C47.1543 42.0354 46.7483 44.077 45.9326 45.9846C43.1403 52.389 36.9471 54.5724 30.4131 54.5724L15.3682 54.5812L15.3555 32.1828C15.3555 32.1828 22.6243 25.2331 22.7139 25.1652H28.6953C33.4599 25.1609 36.792 23.1148 36.792 18.0783C36.7876 16.1407 36.291 14.6736 35.4365 13.5861C34.4698 12.3561 33.0459 11.6135 31.3584 11.2424C30.4004 11.0309 29.3648 10.9357 28.2773 10.9357H22.6963V12.9904C20.5903 12.9516 18.1085 12.9385 15.3379 12.9816V4.19939L28.4111 4.19061ZM228.825 15.759C232.981 15.759 236.339 17.0672 238.899 19.6916L239.153 19.9543C241.738 22.7508 243.037 26.4838 243.037 31.1574V31.2531L243.05 54.3635V54.4631H236.18V54.3683L236.166 32.3273C236.166 29.0819 235.454 26.5612 234.03 24.7658C232.61 22.9705 230.625 22.0773 228.083 22.0773C225.122 22.0816 222.999 23.0356 221.704 24.9474C220.409 26.855 219.767 30.0788 219.767 34.6144L219.779 54.3762V54.4758H213.15V54.381L213.142 35.3097C213.137 30.6832 212.481 27.3209 211.174 25.2277C209.866 23.1347 207.79 22.09 204.946 22.09C202.016 22.09 199.849 23.148 198.451 25.2541C197.053 27.3602 196.357 30.6229 196.357 35.0422L196.366 54.3898V54.4885H189.876V54.3937L189.854 16.506V16.4064H195.931V20.8605C197.191 19.1558 198.615 17.8828 200.212 17.0412C201.809 16.1996 203.626 15.7765 205.667 15.7765C208.42 15.7722 210.712 16.3032 212.551 17.3605C214.385 18.4179 215.891 20.0704 217.061 22.3273C218.234 20.1178 219.793 18.4691 221.73 17.3859C223.668 16.3028 226.033 15.759 228.825 15.759ZM295.169 54.4064H287.646L282.273 39.6896L264.876 39.6974L259.521 54.423H252.062L270.413 4.45135H276.762L295.169 54.4064ZM359.102 23.173C357.6 23.173 355.506 23.7823 354.198 24.5246C350.996 26.2165 350.215 30.5365 350.215 33.9113L350.229 54.3722H343.427L343.405 16.967H349.753V20.342H349.879C352.102 17.1011 355.433 16.0865 359.102 15.9484V23.173ZM57.7353 54.3449H50.9687V16.3615H57.7353V54.3449ZM380.749 15.9338C387.343 15.9295 393.308 19.2224 396.873 24.384C400.966 34.0064 394.571 40.3983 394.534 40.4347L393.291 37.966C393.433 37.1633 393.516 36.3433 393.516 35.506C393.511 28.2125 387.819 22.347 380.754 22.3469C373.804 22.3511 368.183 28.1143 368.013 35.2472L368.005 35.5842C368.009 42.6703 373.386 48.5439 380.175 48.8635L374.712 54.3058C366.939 51.7164 361.208 44.2716 361.203 35.3898C361.199 24.3847 370.283 15.9382 380.749 15.9338ZM316.532 22.3849C309.467 22.3893 303.981 28.466 303.981 35.6906C303.986 42.7814 309.549 48.9181 316.48 48.9181C321.61 48.9139 325.638 46.0587 327.784 41.3996L327.99 40.9474C328.707 39.3247 329.164 37.5028 329.164 35.7463C329.16 30.0065 326.544 25.4835 321.31 23.3947C319.803 22.7862 318.168 22.385 316.532 22.3849ZM82.207 22.2199C78.6163 22.2199 75.5478 23.4893 73.0059 26.0226C70.4725 28.5474 69.203 31.6286 69.1943 35.2668C69.2073 39.0905 70.4804 42.2975 73.0137 44.8869C75.5599 47.4892 78.6762 48.7833 82.3574 48.7834C85.7194 48.7834 88.6802 47.4759 91.248 44.8605C93.8029 42.2582 95.0851 39.2159 95.0938 35.7375C95.0808 32.0259 93.8078 28.8489 91.2744 26.2033C88.7282 23.5449 85.707 22.22 82.207 22.2199ZM27.0986 15.8498L13.1934 29.6994L11.3887 26.1301C6.80971 29.2245 3.80175 34.4685 3.80175 40.4113C3.8061 43.4192 4.5786 46.2415 5.93359 48.7013C2.27401 45.0848 -3.09325e-06 40.0612 -3.09325e-06 34.507C-0.00426809 28.1154 2.99932 22.4232 7.66894 18.7678L6.18457 15.8332V15.8283L27.0986 15.8498ZM166.161 22.1047C162.614 22.1047 159.64 23.3787 157.236 25.925C154.845 28.4583 153.645 31.6301 153.637 35.4279C153.65 39.2042 154.854 42.3548 157.249 44.8752C159.657 47.4084 162.656 48.6691 166.247 48.6691C169.769 48.6691 172.721 47.3951 175.104 44.8488C177.473 42.3155 178.659 39.1479 178.668 35.3459C178.655 31.5221 177.464 28.3633 175.09 25.8644C172.703 23.3571 169.73 22.1047 166.161 22.1047ZM22.71 47.6242H30.6719C35.4365 47.6199 39.791 44.8965 39.791 39.7219C39.7866 37.9526 39.105 36.1144 38.0176 34.7551C35.9073 31.9629 33.0461 31.6951 29.7793 31.6994H22.7012L22.71 47.6242ZM267.354 33.0119L279.843 33.0041L273.685 13.9025H273.555L267.354 33.0119ZM51.5303 1.70623C54.0765 0.139781 57.3993 0.933466 58.9746 3.47088C60.5542 6.01718 59.7643 9.3582 57.2051 10.9162C54.6632 12.4955 51.3356 11.7058 49.7646 9.15545C48.1894 6.60915 48.9797 3.2858 51.5303 1.70623Z" fill="white"/>
</svg>
